HIERARCHY
ROOT Hips
{
  OFFSET 263.056 91.6644 -274.608
  CHANNELS 6 Xposition Yposition Zposition Zrotation Xrotation Yrotation
  JOINT LeftUpLeg
  {
    OFFSET 8.64259 1.95398 -2.38835
    CHANNELS 3 Zrotation Xrotation Yrotation
    JOINT LeftLeg
    {
      OFFSET 43.7702 0 0
      CHANNELS 3 Zrotation Xrotation Yrotation
      JOINT LeftFoot
      {
        OFFSET 40.6238 0 0
        CHANNELS 3 Zrotation Xrotation Yrotation
        JOINT LeftToeBase
        {
          OFFSET 12.7242 0 0
          CHANNELS 3 Zrotation Xrotation Yrotation
          End Site
          {
            OFFSET 0 0 0
          }
        }
      }
    }
  }
  JOINT RightUpLeg
  {
    OFFSET -8.2249 1.95398 -2.59336
    CHANNELS 3 Zrotation Xrotation Yrotation
    JOINT RightLeg
    {
      OFFSET 43.5653 0 0
      CHANNELS 3 Zrotation Xrotation Yrotation
      JOINT RightFoot
      {
        OFFSET 40.6238 0 0
        CHANNELS 3 Zrotation Xrotation Yrotation
        JOINT RightToeBase
        {
          OFFSET 12.7242 0 0
          CHANNELS 3 Zrotation Xrotation Yrotation
          End Site
          {
            OFFSET 0 0 0
          }
        }
      }
    }
  }
  JOINT Spine
  {
    OFFSET 0.165834 0.87714 6.61349
    CHANNELS 3 Zrotation Xrotation Yrotation
    JOINT Spine1
    {
      OFFSET 7.38963 1.71661e-005 0
      CHANNELS 3 Zrotation Xrotation Yrotation
      JOINT Spine2
      {
        OFFSET 11.9445 1.14441e-005 0
        CHANNELS 3 Zrotation Xrotation Yrotation
        JOINT Spine3
        {
          OFFSET 14.7254 4.19617e-005 0
          CHANNELS 3 Zrotation Xrotation Yrotation
          JOINT Spine4
          {
            OFFSET 10.9679 0 0
            CHANNELS 3 Zrotation Xrotation Yrotation
            JOINT RightShoulder
            {
              OFFSET 2.46616 -1.6653 3.69651
              CHANNELS 3 Zrotation Xrotation Yrotation
              JOINT RightArm
              {
                OFFSET 13.0012 0 0
                CHANNELS 3 Zrotation Xrotation Yrotation
                JOINT RightForeArm
                {
                  OFFSET 28.7848 1.52588e-005 0
                  CHANNELS 3 Zrotation Xrotation Yrotation
                  JOINT RightHand
                  {
                    OFFSET 26.5688 1.52588e-005 0
                    CHANNELS 3 Zrotation Xrotation Yrotation
                    End Site
                    {
                      OFFSET 0 0 0
                    }
                  }
                }
              }
            }
            JOINT LeftShoulder
            {
              OFFSET 2.38034 -1.29275 -3.7523
              CHANNELS 3 Zrotation Xrotation Yrotation
              JOINT LeftArm
              {
                OFFSET 16.3182 6.10352e-005 0
                CHANNELS 3 Zrotation Xrotation Yrotation
                JOINT LeftForeArm
                {
                  OFFSET 27.0901 0 0
                  CHANNELS 3 Zrotation Xrotation Yrotation
                  JOINT LeftHand
                  {
                    OFFSET 24.5451 1.52588e-005 0
                    CHANNELS 3 Zrotation Xrotation Yrotation
                    End Site
                    {
                      OFFSET 0 0 0
                    }
                  }
                }
              }
            }
            JOINT Neck
            {
              OFFSET 5.0226 -0.0266342 0
              CHANNELS 3 Zrotation Xrotation Yrotation
              JOINT Head
              {
                OFFSET 6.69364 2.86102e-005 0
                CHANNELS 3 Zrotation Xrotation Yrotation
                End Site
                {
                  OFFSET 0 0 0
                }
              }
            }
          }
        }
      }
    }
  }
}
MOTION
Frames:	15
Frame Time:	0.0416667
265.189 90.2953 -258.479 -67.6796 -50.854 -71.0096 -169.65 35.6001 87.0782 -56.79 25.24 -6.81994 46.0855 -12.0271 14.405 77.6513 49.2921 -3.84118 -176.781 65.1245 89.8844 -67.7744 15.6488 -1.0649 40.6152 3.43494 3.69695 -107.122 38.7655 -20.3026 0.57731 5.99949 -88.6703 14.8505 1.80181 2.40893 3.17866 1.90608 2.32733 -19.3424 0.994876 2.83877 0.670222 0.994871 2.83876 170.649 -71.3165 -2.58068 6.29533 -47.3828 30.8597 -77.6431 -17.44 -80.2538 -86.0388 2.57844 -4.69024 -77.6594 -49.2492 97.3559 -35.4995 27.5015 28.1437 27.5352 -1.15049 -81.5532 35.4002 -18.3156 -54.6202 42.5478 1.53447 -21.5214 -41.9837 6.05946 19.6059 
261.223 91.2918 -253.188 -66.7594 -54.9177 -70.1676 -172.263 27.3193 86.7099 -53.1366 17.2824 -2.84497 46.4858 -9.71823 4.92974 82.4033 48.8349 -11.2057 179.688 57.7461 90.68 -74.1355 15.9547 -1.64827 46.1827 4.39328 4.0457 -102.151 22.9186 -13.2865 -0.264304 6.30242 -88.8449 14.2663 0.0437182 2.31164 2.59336 0.145416 2.30747 -19.9269 -0.652896 2.21802 0.0857915 -0.652905 2.21802 167.313 -81.964 -12.3331 7.74214 -50.4847 38.4133 -100.659 -27.0763 -110.234 -83.6547 -29.4547 36.4326 -84.5194 -51.1793 87.1015 -33.2148 24.3575 21.6683 16.4643 -2.88536 -85.7219 35.2875 2.52216 0.344968 33.4956 1.61739 -12.3782 -29.1345 4.47652 10.9532 
256.294 91.9812 -245.391 -69.9158 -55.4685 -70.74 -173.241 14.2559 90.0804 -44.9298 13.0304 -0.610868 49.2831 -7.79744 -3.40216 80.4735 46.0874 -12.826 173.871 49.192 94.6379 -72.1967 12.7256 -0.251132 53.678 -0.67277 -0.132867 -7.23037 -5.43591 4.77483 -0.597764 6.65309 -89.2481 13.5696 -0.821039 1.6114 1.89789 -0.749308 1.64596 -20.6337 -1.26732 1.29024 -0.621057 -1.26733 1.29022 93.5126 -81.2091 -91.4115 21.9609 -47.0611 51.1314 -65.3719 -32.3106 -95.1708 -97.5281 -27.3545 24.8939 -90.2566 -48.9744 78.1133 -32.4078 21.0497 16.766 14.7968 -6.86422 -94.1409 34.7397 3.66695 6.78015 22.7784 0.240621 -4.19448 -17.305 1.54338 0.850777 
250.848 92.708 -237.101 -71.4133 -57.0693 -71.1675 -173.519 -0.121226 90.0599 -30.6857 20.8725 0.491865 48.1378 -7.54964 -4.45159 56.2108 37.7225 16.6777 172.707 48.3813 94.2067 -58.8196 8.38093 2.77159 57.9517 -0.481515 -0.153083 44.5103 1.22838 4.42859 -0.977598 6.97204 -89.4689 12.9397 -1.68624 1.26498 1.26909 -1.62894 1.33795 -21.2728 -1.98841 0.699611 -1.26019 -1.98845 0.699585 82.9748 -72.064 -105.028 30.7899 -31.6633 58.6875 -16.9329 -9.11835 -71.2345 -68.9705 -1.01886 -2.43712 -93.0685 -45.2706 72.8488 -32.1674 18.5455 13.5031 16.9757 -10.9423 -105.108 30.689 3.32749 7.11862 15.0865 0.0815549 -6.81171 -9.33474 1.76083 3.12466 
244.277 93.7318 -228.695 -75.3831 -54.709 -76.6119 -173.92 -13.8868 90.3003 -12.2659 24.772 0.260116 35.6009 -13.9746 -8.54143 35.147 8.19868 45.059 177.013 46.3174 92.6005 -42.5251 3.92073 3.15408 55.1834 1.38882 1.23478 43.1837 1.23504 5.48465 -0.91844 7.31571 -89.33 12.2515 -1.50781 1.50628 0.580462 -1.44005 1.57117 -21.9582 -1.89077 0.983458 -1.94556 -1.89077 0.983468 83.2837 -64.3125 -106.634 36.7465 -26.714 58.8043 -12.7074 -3.70594 -72.4273 -32.1997 -1.37442 0.300385 -93.9663 -41.407 70.2171 -32.7739 16.7974 11.9662 15.8776 -13.6632 -112.568 29.086 2.48899 4.77089 11.0495 1.27481 -9.9052 -2.61065 3.61409 7.04985 
237.589 93.8281 -220.477 -73.1361 -54.3421 -74.2398 -174.675 -10.1121 91.7058 -22.4845 30.0314 0.941113 32.812 -17.3368 -6.35345 29.6695 -2.92273 28.7594 177.672 44.91 94.0997 -32.7386 4.28513 4.71987 53.1045 1.8506 1.64225 46.6601 1.71956 6.62677 -1.08653 7.34221 -89.6065 12.1984 -1.97323 1.00548 0.52849 -1.92708 1.09136 -22.018 -2.18417 0.365718 -2.00537 -2.18416 0.365715 82.8765 -56.9405 -109.314 40.3278 -22.6389 54.8785 -13.9745 -3.36189 -72.7695 -18.8086 -0.693833 -0.565608 -95.6039 -39.0959 66.7082 -32.8861 12.7128 11.5953 16.4631 -13.8673 -114.052 26.7219 2.18354 4.38468 10.2063 2.82771 -7.60401 0.895039 4.69144 5.67252 
231.579 92.9502 -212.489 -75.8904 -53.8049 -79.0607 -176.318 -4.69897 89.0106 -38.9886 23.6114 1.09252 37.4226 -14.3627 -3.26728 28.2283 -3.02963 16.3197 176.124 42.6704 94.2212 -38.0201 5.3547 5.43345 56.651 0.680414 0.706098 42.027 1.17341 5.38403 -1.17515 7.50914 -89.4736 11.8677 -2.08905 1.27434 0.197749 -2.03095 1.36506 -22.3495 -2.37543 0.587326 -2.33684 -2.37543 0.587319 81.8367 -52.6654 -112.2 40.8334 -18.575 49.2059 -12.9263 -3.48343 -72.2875 -21.9114 -0.732893 -0.958002 -97.1864 -38.3081 63.7851 -33.2133 9.19902 12.5635 16.7332 -11.0146 -109.349 28.1519 2.32885 4.52804 7.98305 4.32855 -3.6672 5.31807 5.23417 3.26121 
225.843 92.0251 -204.535 -82.4724 -52.1648 -84.3088 -174.591 0.972887 90.5008 -54.2326 17.7375 0.506868 41.0058 -12.0946 -0.479573 33.8642 5.51887 11.6704 175.093 35.6338 96.7319 -45.5485 6.49745 5.11498 68.7637 -3.27881 -1.69903 28.2178 -0.736119 9.5028 -0.851593 7.83838 -89.6377 11.203 -1.52638 0.869814 -0.467383 -1.48661 0.93615 -23.009 -1.7172 0.370758 -2.9963 -1.7172 0.370765 81.8643 -52.2727 -112.303 38.0212 -16.9427 42.5865 -13.3277 -2.65435 -72.8858 -22.105 -1.4136 2.62765 -99.2022 -39.8426 61.1462 -33.6274 8.1061 13.705 15.09 -8.40751 -99.1153 30.2525 3.34901 7.30847 6.69071 4.52338 0.176389 6.99862 4.52317 1.53138 
219.982 90.765 -196.667 -86.4022 -52.9092 -86.1498 -174.878 10.1308 93.007 -67.4211 12.7174 1.26175 46.3802 -7.8342 1.94043 40.1384 14.2226 12.8827 175.197 28.942 98.8028 -51.8411 10.025 4.33634 78.0643 -6.20412 -2.80395 33.13 -0.0300766 12.028 -0.775574 8.06937 -89.9319 10.7377 -1.51299 0.274816 -0.932427 -1.49942 0.341155 -23.4746 -1.52562 -0.192718 -3.46196 -1.52562 -0.192707 80.5933 -52.1171 -114.205 34.7281 -15.4284 34.151 -13.5022 -3.31963 -72.9246 -24.2799 -1.01346 0.0970116 -99.6013 -41.5684 61.2604 -35.0313 7.69516 14.0779 10.8038 -2.75415 -86.8629 35.385 2.80914 4.09563 6.4614 4.51477 3.16179 7.40221 3.72289 -0.774978 
214.714 90.1516 -188.885 -84.378 -53.6814 -82.7302 -177.322 23.5772 94.6452 -74.5836 9.40251 2.15027 50.242 -4.21746 5.66992 44.4236 19.7509 11.5582 175.627 23.2586 101.088 -51.8784 14.3536 3.89914 83.2323 -8.75439 -3.53838 39.3521 1.02448 12.0756 -0.614312 8.04301 -90.3139 10.7836 -1.368 -0.496792 -0.886911 -1.38854 -0.436106 -23.4242 -1.15547 -0.884977 -3.41156 -1.15548 -0.884991 79.5044 -51.7483 -115.925 30.7582 -14.2159 23.1287 -12.8321 -4.23189 -73.055 -24.6058 -1.2793 1.29744 -100.952 -43.9698 60.1965 -35.3167 6.44388 15.6046 10.3436 0.691184 -74.9854 36.1588 2.58675 3.29298 9.20009 4.21083 5.5641 5.63805 2.71388 -2.2846 
208.616 90.4837 -181.588 -84.68 -47.3128 -84.4785 -174.571 32.5654 94.4297 -71.8308 6.06707 0.986152 54.3051 -1.35026 6.79916 46.7781 23.4614 13.5876 178.6 15.7893 100.212 -48.2901 11.32 0.506203 83.5926 -9.50679 -3.79181 45.8765 2.1436 12.5048 0.342939 7.99221 -90.0287 10.8931 0.669486 -0.122924 -0.777572 0.66342 -0.15228 -23.3149 0.675477 0.083974 -3.30222 0.675487 0.0839707 80.9844 -50.2594 -114.337 31.6167 -14.0841 14.1597 -15.0052 -2.20852 -77.3379 -24.3525 -1.40762 1.99781 -101.119 -43.7766 59.8585 -36.9953 7.03302 21.1963 7.18271 0.0229091 -69.668 33.5384 2.22275 2.71226 9.88074 2.83142 3.17325 4.70861 2.00584 -0.552823 
202.078 91.6994 -173.911 -84.2307 -45.7812 -86.3306 -174.216 38.1769 93.1974 -61.3644 5.75665 0.234513 56.7762 0.557226 8.77866 46.6947 24.1976 16.2802 179.678 7.21844 97.245 -42.3334 6.75435 -1.75792 78.6721 -7.94917 -3.55695 50.458 2.87215 11.9764 0.69098 7.84436 -89.6836 11.1819 1.52236 0.481242 -0.488253 1.54204 0.413759 -23.0283 1.30733 0.916576 -3.01563 1.30732 0.916581 83.6092 -48.0363 -111.199 34.1456 -16.2698 8.41792 -19.6705 1.85559 -85.2318 -24.0563 -1.60761 3.19486 -98.7537 -43.0803 63.2161 -40.2525 7.90763 28.3268 5.97938 -1.1312 -71.8457 30.9732 2.14095 3.14588 7.98447 1.62004 1.81604 6.06216 1.18255 -0.255132 
195.362 93.5761 -165.161 -83.4931 -45.6299 -87.2936 -174.168 38.7609 92.6236 -42.3511 7.31433 -0.817858 55.8318 -1.66592 4.80556 43.6572 20.6404 19.3648 179.49 -1.1662 94.0696 -35.214 -0.0517231 -3.24578 65.4767 -3.15316 -1.76844 54.8077 4.36497 16.2795 0.918531 7.68827 -89.3969 11.4885 2.10942 0.986236 -0.181046 2.15077 0.892404 -22.723 1.7155 1.57468 -2.71037 1.7155 1.57468 85.3435 -46.1106 -109.176 35.5505 -20.0136 5.69007 -23.5241 5.43092 -93.7198 -22.7235 -1.65216 3.95233 -96.3663 -41.2289 66.2747 -43.8478 7.66079 34.465 12.1174 1.08901 -74.8642 36.4991 4.02158 7.24825 6.55626 0.14291 0.200946 6.67493 0.067099 -0.378747 
188.528 94.9284 -155.914 -83.1764 -45.0022 -88.2031 -174.542 34.8895 92.4623 -17.3763 12.0529 -1.50125 44.8547 -10.7928 -0.740384 40.3766 15.6412 19.6434 177.622 -7.73212 89.8562 -29.8945 -6.15978 -3.94199 51.2261 2.11207 1.79211 46.7815 3.165 18.6799 1.20697 7.5361 -89.1601 11.7848 2.79531 1.37858 0.116201 2.85326 1.25414 -22.43 2.2518 2.1551 -2.41741 2.2518 2.15509 85.8611 -45.8872 -108.432 35.7489 -23.2264 6.78709 -28.7473 11.267 -100.965 -21.9803 -1.91275 5.82403 -96.0669 -39.5173 66.1083 -45.2526 4.87257 40.0998 5.85045 -1.76676 -77.3341 35.4019 2.69207 3.73413 5.3075 -1.27879 -1.63798 6.21965 -0.934732 0.165985 
181.907 96.0046 -146.563 -83.0003 -43.9974 -87.8955 -174.765 33.7771 93.0455 -5.4689 13.0039 -1.97881 40.8495 -14.8899 -3.84782 36.8117 9.72891 14.6428 175.991 -9.46881 87.175 -34.5888 -1.20415 -4.38535 47.2868 2.7428 2.54134 33.7281 -0.0518254 9.80302 1.45508 7.3936 -89.1811 12.0701 3.27957 1.27517 0.402819 3.3325 1.12946 -22.1522 2.7447 2.2023 -2.13959 2.7447 2.20229 86.5639 -45.0154 -107.598 36.338 -25.6603 9.46886 -28.8707 14.6994 -104.003 -20.7725 -2.01162 6.91023 -95.0173 -39.1999 67.719 -44.5539 2.38728 42.951 10.2287 -1.49185 -81.1791 33.4 2.61109 3.95196 3.63926 -1.95844 -1.80285 6.32786 -1.56882 0.538613 
